Coordinates
version=1
nRows=8
nColumns=40
inDegrees=yes

Units are S.I. units (second, meters, Newtons, ...)
If the header above contains a line with 'inDegrees', this indicates whether rotational values are in degrees (yes) or radians (no).

endheader
time	pelvis_tilt	pelvis_list	pelvis_rotation	pelvis_tx	pelvis_ty	pelvis_tz	hip_flexion_r	hip_adduction_r	hip_rotation_r	knee_angle_r	knee_angle_r_beta	ankle_angle_r	subtalar_angle_r	mtp_angle_r	hip_flexion_l	hip_adduction_l	hip_rotation_l	knee_angle_l	knee_angle_l_beta	ankle_angle_l	subtalar_angle_l	mtp_angle_l	lumbar_extension	lumbar_bending	lumbar_rotation	arm_flex_r	arm_add_r	arm_rot_r	elbow_flex_r	pro_sup_r	wrist_flex_r	wrist_dev_r	arm_flex_l	arm_add_l	arm_rot_l	elbow_flex_l	pro_sup_l	wrist_flex_l	wrist_dev_l
      0.17500000	     -8.04283657	      6.39682966	      9.33153369	     -0.49755163	      0.89264120	      0.23701998	     36.72486030	    -11.48806735	    -11.32472173	     13.47663321	      0.23521162	      3.90228022	     -8.29588936	      0.00000000	    -13.76087611	      4.27741879	    -12.06884981	     11.06689184	      0.19315370	      7.09133396	     11.82450687	      0.00000000	     -0.79001548	     -6.34494428	      0.34196694	     44.13720144	    -16.28162533	     44.13720144	     75.36037836	     44.86419769	      0.00000000	      0.00000000	     44.13720144	    -16.28162533	     44.13720144	     75.36037836	     44.86419769	      0.00000000	      0.00000000
      0.18000000	     -7.79534328	      6.14173127	      9.32503934	     -0.48941054	      0.89259161	      0.23766110	     36.40690119	    -11.17215012	    -11.32239072	     14.12370473	      0.24650515	      3.30525683	     -8.84485894	      0.00000000	    -14.20594881	      3.77997519	    -12.12425169	     11.47492535	      0.20027523	      6.24377882	     11.45006866	      0.00000000	     -0.92158303	     -5.93662305	      0.21498957	     44.13787532	    -16.27997089	     44.13787532	     75.35946781	     44.86514887	      0.00000000	      0.00000000	     44.13787532	    -16.27997089	     44.13787532	     75.35946781	     44.86514887	      0.00000000	      0.00000000
      0.18500000	     -7.54460699	      5.84788782	      9.31464760	     -0.48121409	      0.89260944	      0.23833125	     36.06877311	    -10.81920568	    -11.35036220	     14.76926620	      0.25777232	      2.62955045	     -9.43075790	      0.00000000	    -14.61397263	      3.24270432	    -12.20244866	     11.92378021	      0.20810922	      5.34267934	     11.05024362	      0.00000000	     -1.03700558	     -5.50434439	      0.05653662	     44.13849777	    -16.27844342	     44.13849777	     75.35862812	     44.86602233	      0.00000000	      0.00000000	     44.13849777	    -16.27844342	     44.13849777	     75.35862812	     44.86602233	      0.00000000	      0.00000000
      0.19000000	     -7.30630566	      5.54316834	      9.27122261	     -0.47296502	      0.89271008	      0.23909892	     35.74871276	    -10.43801719	    -11.35317615	     15.44042784	      0.26948630	      1.94978492	     -9.95581174	      0.00000000	    -14.97067419	      2.69650398	    -12.32492219	     12.42657494	      0.21688465	      4.37401711	     10.60313179	      0.00000000	     -1.13766677	     -5.08795550	     -0.10276332	     44.13896329	    -16.27730158	     44.13896329	     75.35800108	     44.86667216	      0.00000000	      0.00000000	     44.13896329	    -16.27730158	     44.13896329	     75.35800108	     44.86667216	      0.00000000	      0.00000000
      0.19500000	     -6.99836416	      5.17933086	      9.20947724	     -0.46479161	      0.89301667	      0.23989377	     35.32056102	     -9.97516560	    -11.35646279	     16.03315088	      0.27983127	      1.10721167	    -10.56408087	      0.00000000	    -15.33126977	      2.08129489	    -12.44889540	     13.01767108	      0.22720122	      3.37350811	     10.06187159	      0.00000000	     -1.31888259	     -4.58822392	     -0.29448699	     44.13965555	    -16.27560426	     44.13965555	     75.35706993	     44.86763351	      0.00000000	      0.00000000	     44.13965555	    -16.27560426	     44.13965555	     75.35706993	     44.86763351	      0.00000000	      0.00000000
      0.20000000	     -6.69523240	      4.81427423	      9.08406359	     -0.45650079	      0.89339807	      0.24083051	     34.91753565	     -9.48473874	    -11.37031296	     16.67171742	      0.29097636	      0.31601669	    -11.12585281	      0.00000000	    -15.64766519	      1.47150042	    -12.67905821	     13.67875453	      0.23873930	      2.24182984	      9.43132986	      0.00000000	     -1.46665720	     -4.12670480	     -0.46644799	     44.14023643	    -16.27418073	     44.14023643	     75.35628993	     44.86843534	      0.00000000	      0.00000000	     44.14023643	    -16.27418073	     44.14023643	     75.35628993	     44.86843534	      0.00000000	      0.00000000
      0.20500000	     -6.15031792	      4.14581200	      9.02841770	     -0.44827874	      0.89441347	      0.24152293	     33.93227185	     -8.59988204	    -11.22158331	     16.64491275	      0.29050853	     -1.05170405	    -12.30235621	      0.00000000	    -16.07718175	      0.48009175	    -12.95143372	     14.50364174	      0.25313630	      1.18803620	      8.86914401	      0.00000000	     -1.86494166	     -3.24837364	     -0.79268847	     44.14308060	    -16.26721987	     44.14308060	     75.35248826	     44.87229662	      0.00000000	      0.00000000	     44.14308060	    -16.26721987	     44.14308060	     75.35248826	     44.87229662	      0.00000000	      0.00000000
      0.21000000	     -5.88350710	      3.83231435	      8.76607878	     -0.44004936	      0.89484899	      0.24278453	     33.67835542	     -8.11306044	    -11.16317730	     17.47035805	      0.30491527	     -1.63442383	    -12.63271674	      0.00000000	    -16.26918543	     -0.04918800	    -13.31377419	     15.30743418	      0.26716513	     -0.12499215	      8.09589103	      0.00000000	     -1.98233109	     -2.89145624	     -0.90613689	     44.14363605	    -16.26586221	     44.14363605	     75.35174903	     44.87303936	      0.00000000	      0.00000000	     44.14363605	    -16.26586221	     44.14363605	     75.35174903	     44.87303936	      0.00000000	      0.00000000
